PathFileType	4	(X/Y/Z)	OpenSim_Sub07_CSBaseline_Magnet.trc
DataRate	CameraRate	NumFrames	NumMarkers	Units	OrigDataRate	OrigDataStartFrame	OrigNumFrames
100	100	16	8	m	100	5842	7788
Frame#	Time	torso_imu_offset_imu	pelvis_imu_offset_imu	tibia_r_imu_offset_imu	femur_r_imu_offset_imu	tibia_l_imu_offset_imu	femur_l_imu_offset_imu	toes_r_imu_offset_imu	toes_l_imu_offset_imu
				X1	Y1	Z1	X2	Y2	Z2	X3	Y3	Z3	X4	Y4	Z4	X5	Y5	Z5	X6	Y6	Z6	X7	Y7	Z7	X8		Y8	Z8	

5842	58.41000000	0.92948766	0.16402776	0.08571590	-0.71597750	0.12201503	-0.61962956	-0.48907441	-0.66181819	0.19102150	-0.67080810	-0.52498422	-0.11570955	-0.78143695	0.21395971	0.07571311	-0.68151006	-0.27992426	0.14515365	-0.78000451	-0.34522264	-0.39332089	-0.58400394	-0.27573539	-0.51210397
5843	58.42000000	0.93319550	0.16720774	0.08245667	-0.71131062	0.12149178	-0.61704933	-0.48086534	-0.66625119	0.18974064	-0.66689714	-0.52747388	-0.11614015	-0.78326596	0.20996303	0.08324044	-0.68329526	-0.27012322	0.14889612	-0.78644134	-0.34302740	-0.38008306	-0.58073958	-0.27677650	-0.51755312
5844	58.43000000	0.93029462	0.16701353	0.08579273	-0.71588276	0.12150984	-0.61108627	-0.46888194	-0.67265432	0.19321313	-0.66496365	-0.52824441	-0.11625332	-0.78253060	0.21306641	0.08928532	-0.68146626	-0.26893109	0.15003827	-0.78941782	-0.33922943	-0.37134487	-0.58353738	-0.28014768	-0.51692769
5845	58.44000000	0.93245595	0.16402209	0.08645106	-0.71570254	0.12202019	-0.61337532	-0.45961726	-0.67948272	0.19560140	-0.66539819	-0.53446197	-0.11391710	-0.78018036	0.21956219	0.09200390	-0.67450953	-0.26750280	0.14635848	-0.79363392	-0.33137196	-0.36670670	-0.59281645	-0.27158666	-0.51340736
5846	58.45000000	0.93549338	0.16596455	0.07965779	-0.71794795	0.12460298	-0.61218341	-0.44728792	-0.68706942	0.18914057	-0.66157458	-0.53312039	-0.12103545	-0.77932787	0.22991972	0.09107742	-0.67682669	-0.27058280	0.14806072	-0.80099311	-0.32494308	-0.35244448	-0.60134411	-0.25592723	-0.49785062
5847	58.46000000	0.93601746	0.16757383	0.07776762	-0.71692608	0.12556153	-0.60356503	-0.43933225	-0.69497682	0.19438657	-0.65756104	-0.54014530	-0.12207851	-0.77783435	0.23647002	0.09606444	-0.68186628	-0.27606963	0.15491403	-0.80306018	-0.31806927	-0.34058822	-0.61656971	-0.24389235	-0.49635101
5848	58.47000000	0.93628185	0.16844615	0.08030033	-0.71969314	0.12211210	-0.60767094	-0.42504689	-0.70737816	0.19433246	-0.65514587	-0.53866255	-0.12562703	-0.77097890	0.25044611	0.10104407	-0.67539461	-0.28061744	0.15823303	-0.80744095	-0.31301745	-0.32617913	-0.63244333	-0.23875326	-0.48000501
5849	58.48000000	0.93350229	0.16495317	0.07453491	-0.72273635	0.11923155	-0.60992973	-0.40856409	-0.71834211	0.18875533	-0.65867782	-0.53423540	-0.12861393	-0.76842328	0.26611169	0.09980102	-0.67492482	-0.28098092	0.17411094	-0.81358200	-0.30181297	-0.32034093	-0.64287296	-0.23698351	-0.46385870
5850	58.49000000	0.93471223	0.17014686	0.07530511	-0.71707309	0.12345607	-0.60153783	-0.39793967	-0.72495003	0.18246649	-0.65412379	-0.53573270	-0.13054854	-0.76515119	0.27408270	0.10936087	-0.67124868	-0.28162917	0.17688882	-0.82012643	-0.29290508	-0.30904742	-0.64882579	-0.23348960	-0.45486859
5851	58.50000000	0.93328854	0.16443729	0.06266649	-0.72108566	0.12429264	-0.60278534	-0.38006554	-0.72780742	0.18781684	-0.65762888	-0.53488211	-0.14097860	-0.75865712	0.28222240	0.10962114	-0.67039093	-0.27727465	0.17976829	-0.82537591	-0.28362453	-0.29570823	-0.66445084	-0.23549588	-0.43392951
5852	58.51000000	0.93183359	0.16509114	0.06345791	-0.72509238	0.11891166	-0.59864471	-0.36541515	-0.73997168	0.17983040	-0.65712971	-0.53440375	-0.14440127	-0.75517124	0.28989638	0.11046126	-0.66764283	-0.27935437	0.19139747	-0.83566600	-0.27248314	-0.27843387	-0.67768554	-0.23198797	-0.41965687
5853	58.52000000	0.93020530	0.16810056	0.05997243	-0.72979317	0.11842909	-0.59570237	-0.34877460	-0.74644285	0.18240719	-0.66261471	-0.52652309	-0.14371426	-0.75457732	0.30054747	0.12122125	-0.66797516	-0.28312300	0.19071200	-0.83657071	-0.26410546	-0.25852346	-0.68379776	-0.23194935	-0.40711286
5854	58.53000000	0.93119273	0.16562827	0.05371416	-0.73263734	0.11438218	-0.59371342	-0.33491515	-0.75645416	0.18561260	-0.66351889	-0.52607458	-0.14821901	-0.75237080	0.30532242	0.12311557	-0.66573501	-0.28629899	0.18293517	-0.84598609	-0.25505887	-0.23611353	-0.68980829	-0.22152017	-0.39953978
5855	58.54000000	0.92909010	0.16623592	0.05642141	-0.73281843	0.11548970	-0.59265667	-0.30937809	-0.76212715	0.18147886	-0.66607836	-0.52509412	-0.15136520	-0.74351377	0.31221589	0.12212885	-0.66796540	-0.29299620	0.19000602	-0.85120032	-0.24890456	-0.21969819	-0.69647418	-0.22297020	-0.38643332
5856	58.55000000	0.93778991	0.16546468	0.05199114	-0.73475349	0.11348698	-0.59695459	-0.29241348	-0.76806473	0.18427804	-0.66580703	-0.51987673	-0.15372837	-0.74138496	0.32546709	0.12302049	-0.66063745	-0.29585586	0.19760732	-0.86045520	-0.23715437	-0.19927148	-0.70576555	-0.21374533	-0.37429589
5857	58.56000000	0.93228436	0.16335037	0.05091854	-0.73369500	0.11189236	-0.58894619	-0.27341850	-0.77630530	0.17821001	-0.67215901	-0.51411554	-0.15005857	-0.73667067	0.33235691	0.13158300	-0.66076157	-0.29938442	0.19141334	-0.87082852	-0.22770550	-0.16755322	-0.70459059	-0.20996675	-0.38364195
